<?xml version="1.0" standalone="no"?>
<!DOCTYPE svg PUBLIC "-//W3C//DTD SVG 20010904//EN"
 "http://www.w3.org/TR/2001/REC-SVG-20010904/DTD/svg10.dtd">
<svg version="1.0" xmlns="http://www.w3.org/2000/svg"
 width="500.000000pt" height="500.000000pt" viewBox="0 0 500.000000 500.000000"
 preserveAspectRatio="xMidYMid meet">

<g transform="translate(0.000000,500.000000) scale(0.100000,-0.100000)"
fill="#000000" stroke="none">
<path d="M2163 3122 c-33 -21 -32 -82 1 -104 19 -13 64 -9 80 8 22 21 20 67
-2 87 -19 18 -59 22 -79 9z"/>
<path d="M301 2910 c-18 -5 -46 -18 -62 -29 -29 -21 -29 -21 -29 -1 0 17 -6
20 -50 20 l-50 0 0 -285 0 -285 50 0 50 0 0 200 c0 222 5 247 60 275 41 21 82
19 121 -8 51 -34 58 -68 58 -279 l1 -188 45 0 45 0 0 190 c0 201 6 236 48 273
30 28 94 33 130 12 58 -35 62 -53 62 -274 l0 -201 51 0 51 0 -4 213 c-3 226
-7 246 -62 305 -72 80 -215 86 -290 13 l-32 -31 -19 20 c-45 50 -113 73 -174
60z"/>
<path d="M1769 2910 c-127 -23 -175 -188 -79 -275 12 -11 63 -40 113 -65 89
-43 92 -46 95 -81 3 -30 -2 -41 -24 -58 -46 -36 -138 -20 -164 29 -10 18 -12
18 -55 2 -25 -9 -45 -20 -45 -24 0 -4 15 -24 32 -44 95 -108 286 -97 339 19
22 50 24 86 5 130 -19 46 -50 70 -149 117 -91 44 -115 70 -101 112 15 49 101
62 145 22 18 -16 21 -16 54 2 41 22 43 33 13 61 -49 45 -116 65 -179 53z"/>
<path d="M2663 2909 c-88 -17 -168 -80 -214 -169 -33 -64 -33 -175 0 -248 30
-67 105 -135 173 -158 96 -32 222 -9 294 53 33 29 84 104 84 125 0 14 -8 18
-40 18 -35 0 -46 -6 -87 -49 -64 -66 -136 -86 -214 -60 -87 29 -139 102 -139
194 0 196 232 277 362 126 30 -36 40 -41 76 -41 34 0 42 4 42 18 0 23 -57 104
-92 132 -64 50 -165 75 -245 59z"/>
<path d="M3601 2910 c-18 -5 -46 -18 -62 -29 -29 -21 -29 -21 -29 -1 0 17 -6
20 -50 20 l-50 0 0 -285 0 -285 50 0 50 0 0 201 c0 220 4 240 60 273 55 32
118 15 157 -43 22 -33 23 -42 23 -232 l0 -199 44 0 44 0 4 203 c3 220 7 234
61 267 38 24 78 25 117 5 55 -28 60 -53 60 -275 l0 -200 50 0 50 0 0 196 c0
215 -6 253 -52 309 -76 92 -208 105 -297 29 -34 -30 -42 -33 -47 -20 -8 21
-80 62 -119 68 -16 3 -45 2 -64 -2z"/>
<path d="M4578 2910 c-91 -15 -180 -87 -221 -179 -29 -64 -28 -172 1 -232 34
-70 78 -115 144 -148 146 -73 324 -15 398 129 11 22 20 42 20 45 0 3 -21 5
-47 5 -42 0 -49 -4 -81 -41 -69 -80 -158 -99 -251 -53 -56 28 -96 77 -107 132
l-6 32 251 0 251 0 0 43 c0 55 -49 156 -93 193 -70 60 -171 88 -259 74z m137
-109 c39 -17 105 -81 105 -101 0 -6 -73 -10 -185 -10 -209 0 -212 1 -147 66
65 63 150 80 227 45z"/>
<path d="M1052 2688 c3 -198 5 -216 26 -259 14 -28 39 -58 64 -75 38 -26 49
-29 128 -29 75 0 91 3 122 24 83 57 97 111 98 364 l0 187 -50 0 -50 0 0 -202
c0 -184 -2 -206 -20 -235 -13 -22 -32 -36 -60 -44 -56 -17 -114 1 -140 44 -18
29 -20 51 -20 235 l0 202 -51 0 -50 0 3 -212z"/>
<path d="M2150 2615 l0 -285 50 0 50 0 0 285 0 285 -50 0 -50 0 0 -285z"/>
<path d="M3137 2469 c-68 -40 -43 -148 35 -149 40 0 57 9 73 41 21 40 19 57
-14 90 -30 30 -63 36 -94 18z"/>
<path d="M1463 2200 c-17 -10 -37 -28 -43 -39 -11 -21 -16 -21 -620 -21 l-610
0 0 -40 0 -40 611 0 611 0 19 -24 c43 -54 140 -54 175 0 l16 24 1597 2 1596 3
3 38 3 37 -1595 0 -1595 0 -11 21 c-15 27 -69 59 -100 59 -14 0 -39 -9 -57
-20z"/>
</g>
</svg>
